<svg width="60" height="60" viewBox="0 0 60 60" fill="none" xmlns="http://www.w3.org/2000/svg">
<path fill-rule="evenodd" clip-rule="evenodd" d="M36.3665 0H56.1069L56.1072 0.000569264C58.1789 0.000569264 59.9995 1.82879 59.9995 3.90259V23.1727C59.9995 24.8209 59.6338 26.6001 58.7021 27.5301L27.2431 58.9216C25.7975 60.3634 23.4591 60.358 22.0097 58.914L1.08421 37.981C-0.361402 36.53 -0.361402 34.171 1.08421 32.7217L32.4703 1.30128C33.4002 0.371238 35.0109 0 36.3665 0ZM37.499 15.0004C37.499 19.1422 40.8574 22.5005 44.9992 22.5005C49.141 22.5005 52.4994 19.1422 52.4994 15.0004C52.4994 10.8586 49.141 7.50018 44.9992 7.50018C40.8574 7.50018 37.499 10.8586 37.499 15.0004ZM29.9387 35.8325C29.8794 37.1671 29.2438 38.4103 28.2435 39.2284L28.2434 39.2285C26.7584 40.4708 24.6045 40.5597 22.8742 39.4958L21.8742 40.4959C21.571 40.799 21.0553 40.8287 20.7213 40.4947L19.4456 39.219C19.1418 38.9152 19.111 38.3994 19.4444 38.0661L20.3838 37.1267C19.3508 35.6087 19.3792 33.576 20.5608 32.1516C20.7124 32 20.8944 31.879 21.1369 31.8792C21.3492 31.8492 21.592 31.9707 21.7439 32.1226L22.9891 33.3678C23.2624 33.641 23.3236 34.0658 23.1117 34.3993C22.93 34.7026 22.9607 35.0968 23.2036 35.3398L24.2969 36.4331C24.8134 36.9496 25.5414 37.0108 26.0567 36.6171C26.3597 36.3747 26.5414 36.0715 26.541 35.7075C26.5408 35.3433 26.419 34.9792 26.176 34.7362L25.3865 33.9467C23.6556 32.2158 23.4401 29.3943 24.9551 27.5756C26.5002 25.7266 29.0785 25.3349 31.0517 26.5808L31.9911 25.6414C32.2943 25.3383 32.8099 25.3085 33.144 25.6426L34.3892 26.8878C34.693 27.1916 34.7238 27.7073 34.3904 28.0407L33.451 28.9801C34.4839 30.4981 34.4556 32.5308 33.274 33.9552C33.1224 34.1068 32.9404 34.2278 32.6978 34.2276C32.4856 34.2576 32.2428 34.1361 32.0909 33.9842L30.8457 32.739C30.5724 32.4658 30.5112 32.041 30.7231 31.7075C30.9048 31.4042 30.8741 31.01 30.6312 30.767L29.5379 29.6737C29.0214 29.1572 28.2934 29.096 27.7781 29.4897C27.4751 29.7321 27.2934 30.0353 27.2938 30.3993C27.294 30.7635 27.4158 31.1276 27.6588 31.3706L28.6002 32.3119C29.5113 33.2231 29.9979 34.4977 29.9387 35.8325Z" fill="url(#paint0_linear_29_218)"/>
<defs>
<linearGradient id="paint0_linear_29_218" x1="29.9998" y1="0" x2="29.9998" y2="60" gradientUnits="userSpaceOnUse">
<stop stop-color="#FFD000"/>
<stop offset="1" stop-color="#FF6600"/>
</linearGradient>
</defs>
</svg>
