<svg width="30" height="30" viewBox="0 0 30 30" fill="none" xmlns="http://www.w3.org/2000/svg">
<path d="M1.92524 16.9756H23.4301L14.035 26.6167C13.2841 27.3872 13.2841 28.6516 14.035 29.4221C14.7858 30.1926 15.9987 30.1926 16.7496 29.4221L29.4369 16.4027C30.1877 15.6322 30.1877 14.3875 29.4369 13.617L16.7688 0.577845C16.4091 0.207902 15.9208 0 15.4115 0C14.9023 0 14.4139 0.207902 14.0542 0.577845C13.3034 1.34834 13.3034 2.59299 14.0542 3.36349L23.4301 13.0244H1.92524C0.866356 13.0244 0 13.9134 0 15C0 16.0866 0.866356 16.9756 1.92524 16.9756Z" fill="white"/>
</svg>
