<svg width="24" height="24" viewBox="0 0 24 24" fill="none" xmlns="http://www.w3.org/2000/svg">
<rect width="24" height="24" rx="2" fill="url(#paint0_linear_590_82)"/>
<path d="M11.4755 8.5134V14.248L8.9028 11.7427C8.6972 11.5424 8.3598 11.5424 8.1542 11.7427C7.9486 11.9429 7.9486 12.2663 8.1542 12.4665L11.6283 15.8498C11.8339 16.0501 12.1661 16.0501 12.3717 15.8498L15.8458 12.4665C16.0514 12.2663 16.0514 11.9429 15.8458 11.7427C15.7473 11.6465 15.6136 11.5925 15.4741 11.5925C15.3347 11.5925 15.201 11.6465 15.1025 11.7427L12.5298 14.248V8.5134C12.5298 8.23103 12.2926 8 12.0026 8C11.7127 8 11.4755 8.23103 11.4755 8.5134Z" fill="white"/>
<defs>
<linearGradient id="paint0_linear_590_82" x1="0" y1="0" x2="24" y2="24" gradientUnits="userSpaceOnUse">
<stop stop-color="#FFD000"/>
<stop offset="1" stop-color="#FF6600"/>
</linearGradient>
</defs>
</svg>
