<svg width="21" height="16" viewBox="0 0 21 16" fill="none" xmlns="http://www.w3.org/2000/svg">
<path fill-rule="evenodd" clip-rule="evenodd" d="M10.2915 2C6.98153 2 4.29153 4.69 4.29153 8H6.08153C6.53153 8 6.75153 8.54 6.44153 8.85L3.65153 11.64C3.45153 11.84 3.14153 11.84 2.94153 11.64L0.151534 8.85C-0.168466 8.54 0.0515344 8 0.501534 8H2.29153C2.29153 3.58 5.87153 0 10.2915 0C11.3315 0 12.3315 0.2 13.2415 0.57C13.9115 0.84 14.0915 1.7 13.5815 2.21C13.3115 2.48 12.9015 2.59 12.5415 2.44C11.8515 2.15 11.0815 2 10.2915 2ZM14.1515 7.14L16.9415 4.35C17.1315 4.16 17.4515 4.16 17.6415 4.36L20.4315 7.15C20.7515 7.46 20.5315 8 20.0815 8H18.2915C18.2915 12.42 14.7115 16 10.2915 16C9.25153 16 8.25153 15.8 7.34153 15.43C6.67153 15.16 6.49153 14.3 7.00153 13.79C7.27153 13.52 7.68153 13.41 8.04153 13.56C8.73153 13.85 9.50153 14 10.2915 14C13.6015 14 16.2915 11.31 16.2915 8H14.5015C14.0515 8 13.8315 7.46 14.1515 7.14Z" fill="white"/>
</svg>
