<svg width="30" height="30" viewBox="0 0 30 30" fill="none" xmlns="http://www.w3.org/2000/svg">
<circle opacity="0.2" cx="15" cy="15" r="15" fill="white"/>
<path d="M14.6812 18.1476C14.8885 17.9649 15 17.726 15 17.4871C15 17.2483 14.8884 17.0094 14.6812 16.8267C14.2668 16.4614 13.5813 16.4614 13.1669 16.8267L12.067 17.7963V9.94146C12.067 9.42157 11.5888 9 10.999 9C10.4093 9 9.93104 9.42157 9.93104 9.94146V17.7963L8.83113 16.8267C8.41672 16.4614 7.74725 16.4614 7.31684 16.8267C6.88643 17.192 6.90242 17.7822 7.31684 18.1616L10.2498 20.719C10.4571 20.9017 10.7281 21 10.999 21C11.2859 21 11.557 20.9016 11.7482 20.719L14.6812 18.1476Z" fill="#FFD000"/>
<path d="M15.311 11.8471C14.8963 12.2126 14.8963 12.8031 15.311 13.1828C15.7258 13.5624 16.3957 13.5483 16.8265 13.1828L17.9272 12.2126V20.058C17.9272 20.5782 18.4058 21 18.996 21C19.5862 21 20.0648 20.5782 20.0648 20.058V12.1986L21.1655 13.1687C21.5803 13.5342 22.2663 13.5342 22.681 13.1687C22.8884 12.9859 23 12.7469 23 12.5079C23 12.2689 22.8883 12.0299 22.681 11.8471L19.7458 9.27415C19.331 8.90862 18.6611 8.90862 18.2303 9.27415L15.311 11.8471Z" fill="#FFD000"/>
</svg>
