<svg width="16" height="20" viewBox="0 0 16 20" fill="none" xmlns="http://www.w3.org/2000/svg">
<path d="M3.80324 9.60153C4.04684 9.8606 4.36533 10 4.6838 10C5.00229 10 5.32078 9.86046 5.56437 9.60153C6.05146 9.08351 6.05146 8.22665 5.56437 7.70866L4.27159 6.33378H14.7447C15.4379 6.33378 16 5.73599 16 4.99879C16 4.26159 15.4379 3.6638 14.7447 3.6638H4.27159L5.56437 2.28892C6.05146 1.77089 6.05146 0.934069 5.56437 0.39605C5.07728 -0.141968 4.29042 -0.121971 3.78453 0.39605L0.374676 4.0623C0.131075 4.32137 0 4.6601 0 4.99879C0 5.35737 0.131212 5.69625 0.374676 5.93528L3.80324 9.60153Z" fill="#FFD000"/>
<path d="M12.2038 10.3888C11.7165 9.8704 10.9292 9.8704 10.423 10.3888C9.91678 10.9072 9.9356 11.7447 10.423 12.2831L11.7165 13.659H1.25601C0.562425 13.659 0 14.2573 0 14.995C0 15.7328 0.562425 16.331 1.25601 16.331H11.7353L10.4417 17.7069C9.95434 18.2253 9.95434 19.0829 10.4417 19.6012C10.6855 19.8605 11.0041 20 11.3228 20C11.6415 20 11.9601 19.8603 12.2039 19.6012L15.6345 15.9322C16.1218 15.4138 16.1218 14.5763 15.6345 14.0379L12.2038 10.3888Z" fill="#FFD000"/>
</svg>
