<svg width="60" height="60" viewBox="0 0 60 60" fill="none" xmlns="http://www.w3.org/2000/svg">
<path d="M48.1113 43.3818L50.29 44.6265L50.3521 44.5019C53.402 40.2698 55.0202 35.2279 55.0202 29.9375C55.0822 23.1533 52.5307 16.8046 47.8001 12.0743C43.0699 7.28209 36.7833 4.66797 30.0614 4.66797C16.1816 4.66797 4.85373 15.9336 4.85373 29.8134C4.85373 43.6931 16.1194 54.9588 29.9991 54.9588C32.4265 54.9588 34.7293 54.6475 36.9079 53.9628L37.0325 53.9007L36.5345 51.4113L36.3478 51.4734C34.2317 52.096 32.0531 52.4693 29.875 52.4693C17.4267 52.4693 7.28145 42.3239 7.28145 29.8758C7.28145 17.4277 17.4269 7.28232 29.875 7.28232C42.3231 7.28232 52.4685 17.4277 52.4685 29.8758C52.4685 34.6685 50.9746 39.2741 48.1117 43.2577L48.1113 43.3818Z" fill="url(#paint0_linear_28_210)"/>
<path d="M37.6145 35.015C37.8012 33.1476 37.1786 31.2182 35.8717 29.7868C34.5645 28.3554 32.7597 27.5461 30.8923 27.5461H28.963C28.465 27.5461 27.967 27.2974 27.5937 26.9235C27.2203 26.5502 27.0957 26.0522 27.1578 25.4921C27.2824 24.5587 28.0912 23.874 29.1497 23.874H31.3904C31.8884 23.874 32.3238 24.2473 32.4484 24.7453C32.573 25.3054 33.071 25.6788 33.6311 25.6788H36.1831C36.4944 25.6788 36.8678 25.5541 37.0545 25.3054C37.3032 25.0566 37.3658 24.7453 37.3658 24.434C37.117 21.7579 35.063 19.6413 32.4489 19.1433V17.2139C32.4489 16.5293 31.8889 16.0312 31.2663 16.0312H28.7143C28.0296 16.0312 27.5316 16.5913 27.5316 17.2139V19.1433C24.2328 19.8901 21.9921 22.94 22.3034 26.4255C22.6147 29.8489 25.7268 32.525 29.2743 32.525H30.8925C31.3905 32.525 31.8884 32.7738 32.2618 33.1476C32.6352 33.521 32.7598 34.019 32.6977 34.579C32.5731 35.5125 31.7642 36.1972 30.7057 36.1972H28.4651C27.9671 36.1972 27.5316 35.8238 27.407 35.3258C27.2824 34.7658 26.7844 34.3924 26.2243 34.3924H23.6723C23.361 34.3924 22.9877 34.517 22.801 34.7658C22.5522 35.0146 22.4897 35.3259 22.4897 35.6371C22.7385 38.3133 24.7925 40.4298 27.4065 40.9279V42.8572C27.4065 43.5419 27.9666 44.0399 28.5892 44.0399H31.2037C31.8883 44.0399 32.3863 43.4798 32.3863 42.8572V40.8033C35.2497 40.119 37.3657 37.8158 37.6145 35.0151V35.015Z" fill="url(#paint1_linear_28_210)"/>
<path d="M51.2856 8.83823C45.6215 3.17418 38.0282 0 30.0614 0C27.2607 0 24.5841 0.37338 22.0325 1.12012L21.8458 1.1822L22.2817 3.48501L22.4684 3.42293C24.9578 2.73825 27.5098 2.36488 29.9998 2.36488C45.2489 2.36488 57.6971 14.7509 57.6971 30.0622C57.6966 45.3735 45.3111 57.6972 30.062 57.6972C14.7507 57.6351 2.36477 45.249 2.36477 29.9999C2.36477 24.2117 4.10752 18.7343 7.46876 14.004L7.59336 13.8794L5.53941 12.6967L5.47732 12.8213C1.92936 17.8627 0 23.8381 0 30.062C0 46.5559 13.4441 60 29.938 60C46.4941 60 60.0004 46.5559 60.0004 30.062C60.0004 22.0332 56.9505 14.5018 51.2864 8.83784L51.2856 8.83823Z" fill="url(#paint2_linear_28_210)"/>
<defs>
<linearGradient id="paint0_linear_28_210" x1="29.9375" y1="4.66797" x2="29.9375" y2="54.9588" gradientUnits="userSpaceOnUse">
<stop stop-color="#FFD000"/>
<stop offset="1" stop-color="#FF6600"/>
</linearGradient>
<linearGradient id="paint1_linear_28_210" x1="29.9608" y1="16.0312" x2="29.9608" y2="44.0399" gradientUnits="userSpaceOnUse">
<stop stop-color="#FFD000"/>
<stop offset="1" stop-color="#FF6600"/>
</linearGradient>
<linearGradient id="paint2_linear_28_210" x1="30.0002" y1="0" x2="30.0002" y2="60" gradientUnits="userSpaceOnUse">
<stop stop-color="#FFD000"/>
<stop offset="1" stop-color="#FF6600"/>
</linearGradient>
</defs>
</svg>
