<svg width="60" height="60" viewBox="0 0 60 60" fill="none" xmlns="http://www.w3.org/2000/svg">
<path d="M10.2143 59.1176L42 0.882352H49.8571L18.0714 59.1176H10.2143ZM12.5714 0C15.1429 0 17.3571 0.676471 19.2143 2.02941C21.119 3.38235 22.5714 5.29412 23.5714 7.76471C24.619 10.2353 25.1429 13.1176 25.1429 16.4118C25.1429 19.7059 24.619 22.5882 23.5714 25.0588C22.5714 27.4706 21.119 29.3824 19.2143 30.7941C17.3571 32.1471 15.1429 32.8235 12.5714 32.8235C10.0476 32.8235 7.83333 32.1471 5.92857 30.7941C4.02381 29.3824 2.54762 27.4706 1.5 25.0588C0.5 22.5882 0 19.7059 0 16.4118C0 13.1176 0.5 10.2353 1.5 7.76471C2.54762 5.29412 4.02381 3.38235 5.92857 2.02941C7.83333 0.676471 10.0476 0 12.5714 0ZM12.5714 8.38235C11.5238 8.38235 10.619 8.70588 9.85714 9.35294C9.09524 9.94118 8.52381 10.8529 8.14286 12.0882C7.76191 13.2647 7.57143 14.7059 7.57143 16.4118C7.57143 18.0588 7.76191 19.5 8.14286 20.7353C8.52381 21.9118 9.09524 22.8235 9.85714 23.4706C10.619 24.0588 11.5238 24.3529 12.5714 24.3529C13.6667 24.3529 14.5714 24.0588 15.2857 23.4706C16.0476 22.8235 16.619 21.9118 17 20.7353C17.381 19.5 17.5714 18.0588 17.5714 16.4118C17.5714 14.7059 17.381 13.2647 17 12.0882C16.619 10.8529 16.0476 9.94118 15.2857 9.35294C14.5714 8.70588 13.6667 8.38235 12.5714 8.38235ZM47.4286 27.1765C49.9524 27.1765 52.1429 27.8824 54 29.2941C55.9048 30.6471 57.381 32.5588 58.4286 35.0294C59.4762 37.4412 60 40.2941 60 43.5882C60 46.8824 59.4762 49.7647 58.4286 52.2353C57.381 54.7059 55.9048 56.6177 54 57.9706C52.1429 59.3235 49.9524 60 47.4286 60C44.9048 60 42.6905 59.3235 40.7857 57.9706C38.881 56.6177 37.4048 54.7059 36.3571 52.2353C35.3571 49.7647 34.8571 46.8824 34.8571 43.5882C34.8571 40.2941 35.3571 37.4412 36.3571 35.0294C37.4048 32.5588 38.881 30.6471 40.7857 29.2941C42.6905 27.8824 44.9048 27.1765 47.4286 27.1765ZM47.4286 35.6471C46.3333 35.6471 45.4048 35.9706 44.6429 36.6176C43.9286 37.2059 43.381 38.0882 43 39.2647C42.619 40.4412 42.4286 41.8824 42.4286 43.5882C42.4286 45.2353 42.619 46.6765 43 47.9118C43.381 49.1471 43.9286 50.0882 44.6429 50.7353C45.4048 51.3235 46.3333 51.6176 47.4286 51.6176C48.5238 51.6176 49.4286 51.3235 50.1429 50.7353C50.9048 50.0882 51.4762 49.1471 51.8572 47.9118C52.2381 46.6765 52.4286 45.2353 52.4286 43.5882C52.4286 41.8824 52.2381 40.4412 51.8572 39.2647C51.4762 38.0882 50.9048 37.2059 50.1429 36.6176C49.4286 35.9706 48.5238 35.6471 47.4286 35.6471Z" fill="white"/>
<path d="M10.2143 59.1176L42 0.882352H49.8571L18.0714 59.1176H10.2143ZM12.5714 0C15.1429 0 17.3571 0.676471 19.2143 2.02941C21.119 3.38235 22.5714 5.29412 23.5714 7.76471C24.619 10.2353 25.1429 13.1176 25.1429 16.4118C25.1429 19.7059 24.619 22.5882 23.5714 25.0588C22.5714 27.4706 21.119 29.3824 19.2143 30.7941C17.3571 32.1471 15.1429 32.8235 12.5714 32.8235C10.0476 32.8235 7.83333 32.1471 5.92857 30.7941C4.02381 29.3824 2.54762 27.4706 1.5 25.0588C0.5 22.5882 0 19.7059 0 16.4118C0 13.1176 0.5 10.2353 1.5 7.76471C2.54762 5.29412 4.02381 3.38235 5.92857 2.02941C7.83333 0.676471 10.0476 0 12.5714 0ZM12.5714 8.38235C11.5238 8.38235 10.619 8.70588 9.85714 9.35294C9.09524 9.94118 8.52381 10.8529 8.14286 12.0882C7.76191 13.2647 7.57143 14.7059 7.57143 16.4118C7.57143 18.0588 7.76191 19.5 8.14286 20.7353C8.52381 21.9118 9.09524 22.8235 9.85714 23.4706C10.619 24.0588 11.5238 24.3529 12.5714 24.3529C13.6667 24.3529 14.5714 24.0588 15.2857 23.4706C16.0476 22.8235 16.619 21.9118 17 20.7353C17.381 19.5 17.5714 18.0588 17.5714 16.4118C17.5714 14.7059 17.381 13.2647 17 12.0882C16.619 10.8529 16.0476 9.94118 15.2857 9.35294C14.5714 8.70588 13.6667 8.38235 12.5714 8.38235ZM47.4286 27.1765C49.9524 27.1765 52.1429 27.8824 54 29.2941C55.9048 30.6471 57.381 32.5588 58.4286 35.0294C59.4762 37.4412 60 40.2941 60 43.5882C60 46.8824 59.4762 49.7647 58.4286 52.2353C57.381 54.7059 55.9048 56.6177 54 57.9706C52.1429 59.3235 49.9524 60 47.4286 60C44.9048 60 42.6905 59.3235 40.7857 57.9706C38.881 56.6177 37.4048 54.7059 36.3571 52.2353C35.3571 49.7647 34.8571 46.8824 34.8571 43.5882C34.8571 40.2941 35.3571 37.4412 36.3571 35.0294C37.4048 32.5588 38.881 30.6471 40.7857 29.2941C42.6905 27.8824 44.9048 27.1765 47.4286 27.1765ZM47.4286 35.6471C46.3333 35.6471 45.4048 35.9706 44.6429 36.6176C43.9286 37.2059 43.381 38.0882 43 39.2647C42.619 40.4412 42.4286 41.8824 42.4286 43.5882C42.4286 45.2353 42.619 46.6765 43 47.9118C43.381 49.1471 43.9286 50.0882 44.6429 50.7353C45.4048 51.3235 46.3333 51.6176 47.4286 51.6176C48.5238 51.6176 49.4286 51.3235 50.1429 50.7353C50.9048 50.0882 51.4762 49.1471 51.8572 47.9118C52.2381 46.6765 52.4286 45.2353 52.4286 43.5882C52.4286 41.8824 52.2381 40.4412 51.8572 39.2647C51.4762 38.0882 50.9048 37.2059 50.1429 36.6176C49.4286 35.9706 48.5238 35.6471 47.4286 35.6471Z" fill="url(#paint0_linear_80_772)"/>
<defs>
<linearGradient id="paint0_linear_80_772" x1="30" y1="0" x2="30" y2="60" gradientUnits="userSpaceOnUse">
<stop stop-color="#FFD000"/>
<stop offset="1" stop-color="#FF6600"/>
</linearGradient>
</defs>
</svg>
