<svg width="60" height="60" viewBox="0 0 60 60" fill="none" xmlns="http://www.w3.org/2000/svg">
<path d="M42.7624 15.4995H33.3094C32.5744 15.4995 31.9968 16.0843 31.9968 16.8284V58.6712C31.9968 59.4153 32.5744 60.0001 33.3094 60.0001H42.7624C43.4974 60.0001 44.075 59.4153 44.075 58.6712L44.0758 16.8284C44.0758 16.0843 43.4982 15.4995 42.7624 15.4995Z" fill="url(#paint0_linear_27_28)"/>
<path d="M10.7655 33.4438H1.31261C0.577619 33.4438 0 34.0286 0 34.7728V58.6712C0 59.4153 0.577619 60.0001 1.31261 60.0001H10.7655C11.5005 60.0001 12.0781 59.4153 12.0781 58.6712L12.079 34.7728C12.079 34.0286 11.5014 33.4438 10.7655 33.4438Z" fill="url(#paint1_linear_27_28)"/>
<path d="M26.727 21.4536H17.2741C16.5391 21.4536 15.9615 22.0384 15.9615 22.7825V58.6712C15.9615 59.4153 16.5391 60.0001 17.2741 60.0001H26.727C27.462 60.0001 28.0396 59.4153 28.0396 58.6712V22.7825C28.0396 22.0384 27.4365 21.4536 26.727 21.4536Z" fill="url(#paint2_linear_27_28)"/>
<path d="M58.6874 0H49.2345C48.4995 0 47.9219 0.584792 47.9219 1.32891V58.6711C47.9219 59.4152 48.4995 60 49.2345 60H58.6874C59.4224 60 60 59.4152 60 58.6711V1.32891C60 0.584792 59.4224 0 58.6874 0Z" fill="url(#paint3_linear_27_28)"/>
<defs>
<linearGradient id="paint0_linear_27_28" x1="38.0363" y1="15.4995" x2="38.0363" y2="60.0001" gradientUnits="userSpaceOnUse">
<stop stop-color="#FFD000"/>
<stop offset="1" stop-color="#FF6600"/>
</linearGradient>
<linearGradient id="paint1_linear_27_28" x1="6.03951" y1="33.4438" x2="6.03951" y2="60.0001" gradientUnits="userSpaceOnUse">
<stop stop-color="#FFD000"/>
<stop offset="1" stop-color="#FF6600"/>
</linearGradient>
<linearGradient id="paint2_linear_27_28" x1="22.0005" y1="21.4536" x2="22.0005" y2="60.0001" gradientUnits="userSpaceOnUse">
<stop stop-color="#FFD000"/>
<stop offset="1" stop-color="#FF6600"/>
</linearGradient>
<linearGradient id="paint3_linear_27_28" x1="53.9609" y1="0" x2="53.9609" y2="60" gradientUnits="userSpaceOnUse">
<stop stop-color="#FFD000"/>
<stop offset="1" stop-color="#FF6600"/>
</linearGradient>
</defs>
</svg>
