<svg width="60" height="60" viewBox="0 0 60 60" fill="none" xmlns="http://www.w3.org/2000/svg">
<path d="M58.2713 29.5239H47.4936V38.8679H51.23C52.0204 38.8679 52.5953 39.6537 52.5953 40.5272V48.9107C52.5953 49.8713 51.9487 50.57 51.23 50.57L8.8376 50.5694C8.04721 50.5694 7.4723 49.7836 7.4723 48.9101V40.5266C7.4723 39.566 8.11884 38.8673 8.8376 38.8673H12.574V29.5239H1.79629C0.790392 29.5239 0 30.4845 0 31.707V57.817C0 59.0395 0.790392 60.0001 1.79629 60.0001H58.1997C59.2056 60.0001 59.996 59.0395 59.996 57.817L59.9955 31.707C60.0672 30.4845 59.2773 29.5239 58.2709 29.5239L58.2713 29.5239Z" fill="white"/>
<path d="M58.2713 29.5239H47.4936V38.8679H51.23C52.0204 38.8679 52.5953 39.6537 52.5953 40.5272V48.9107C52.5953 49.8713 51.9487 50.57 51.23 50.57L8.8376 50.5694C8.04721 50.5694 7.4723 49.7836 7.4723 48.9101V40.5266C7.4723 39.566 8.11884 38.8673 8.8376 38.8673H12.574V29.5239H1.79629C0.790392 29.5239 0 30.4845 0 31.707V57.817C0 59.0395 0.790392 60.0001 1.79629 60.0001H58.1997C59.2056 60.0001 59.996 59.0395 59.996 57.817L59.9955 31.707C60.0672 30.4845 59.2773 29.5239 58.2709 29.5239L58.2713 29.5239Z" fill="url(#paint0_linear_80_861)"/>
<path d="M45.2175 4.80692C45.2175 2.16773 43.3707 0 41.1222 0H18.8781C16.6296 0 14.7827 2.16773 14.7827 4.80692V45.7143H45.1375V4.80692H45.2175ZM31.8068 34.215V36.8542C31.8068 37.2309 31.5659 37.6083 31.1643 37.6083H28.8358C28.5148 37.6083 28.1933 37.3256 28.1933 36.8542V34.3091C25.784 34.0264 23.8572 31.8586 23.6157 29.0309C23.6157 28.8422 23.6157 28.6541 23.7764 28.4654C23.8565 28.2767 24.0974 28.1827 24.2582 28.1827H26.5867C26.9077 28.1827 27.1491 28.3714 27.1491 28.7481C27.3099 29.5023 27.8717 30.1617 28.5943 30.1617H30.682C31.8864 30.1617 32.8504 29.1249 33.0105 27.8994C33.0906 27.1453 32.8498 26.4858 32.4481 25.9197C32.0465 25.3542 31.404 25.0715 30.8422 25.0715H29.0755C27.4696 25.0715 25.9437 24.2234 24.8194 22.8092C23.6952 21.3956 23.2135 19.5099 23.3743 17.6249C23.6151 14.7031 25.6228 12.2519 28.1928 11.6866V9.04739C28.1928 8.67065 28.4336 8.29325 28.8353 8.29325H31.1638C31.4848 8.29325 31.8063 8.57597 31.8063 9.04739V11.5925C34.2155 11.8752 36.1424 14.043 36.3839 16.8707C36.3839 17.0594 36.3839 17.2474 36.2231 17.4361C36.143 17.6248 35.9021 17.7188 35.7414 17.7188H33.4129C33.0919 17.7188 32.8505 17.5301 32.8505 17.1534C32.6897 16.3993 32.1279 15.7398 31.4053 15.7398H29.3175C28.1132 15.7398 27.1492 16.7767 26.989 18.0022C26.9089 18.7563 27.1498 19.4157 27.5514 19.9819C27.9531 20.5473 28.5955 20.83 29.1573 20.83H30.6833C33.7349 20.83 36.3851 23.4692 36.6259 26.8625C36.9463 30.4451 34.8586 33.6496 31.8069 34.2151L31.8068 34.215Z" fill="white"/>
<path d="M45.2175 4.80692C45.2175 2.16773 43.3707 0 41.1222 0H18.8781C16.6296 0 14.7827 2.16773 14.7827 4.80692V45.7143H45.1375V4.80692H45.2175ZM31.8068 34.215V36.8542C31.8068 37.2309 31.5659 37.6083 31.1643 37.6083H28.8358C28.5148 37.6083 28.1933 37.3256 28.1933 36.8542V34.3091C25.784 34.0264 23.8572 31.8586 23.6157 29.0309C23.6157 28.8422 23.6157 28.6541 23.7764 28.4654C23.8565 28.2767 24.0974 28.1827 24.2582 28.1827H26.5867C26.9077 28.1827 27.1491 28.3714 27.1491 28.7481C27.3099 29.5023 27.8717 30.1617 28.5943 30.1617H30.682C31.8864 30.1617 32.8504 29.1249 33.0105 27.8994C33.0906 27.1453 32.8498 26.4858 32.4481 25.9197C32.0465 25.3542 31.404 25.0715 30.8422 25.0715H29.0755C27.4696 25.0715 25.9437 24.2234 24.8194 22.8092C23.6952 21.3956 23.2135 19.5099 23.3743 17.6249C23.6151 14.7031 25.6228 12.2519 28.1928 11.6866V9.04739C28.1928 8.67065 28.4336 8.29325 28.8353 8.29325H31.1638C31.4848 8.29325 31.8063 8.57597 31.8063 9.04739V11.5925C34.2155 11.8752 36.1424 14.043 36.3839 16.8707C36.3839 17.0594 36.3839 17.2474 36.2231 17.4361C36.143 17.6248 35.9021 17.7188 35.7414 17.7188H33.4129C33.0919 17.7188 32.8505 17.5301 32.8505 17.1534C32.6897 16.3993 32.1279 15.7398 31.4053 15.7398H29.3175C28.1132 15.7398 27.1492 16.7767 26.989 18.0022C26.9089 18.7563 27.1498 19.4157 27.5514 19.9819C27.9531 20.5473 28.5955 20.83 29.1573 20.83H30.6833C33.7349 20.83 36.3851 23.4692 36.6259 26.8625C36.9463 30.4451 34.8586 33.6496 31.8069 34.2151L31.8068 34.215Z" fill="url(#paint1_linear_80_861)"/>
<defs>
<linearGradient id="paint0_linear_80_861" x1="30" y1="29.5239" x2="30" y2="60.0001" gradientUnits="userSpaceOnUse">
<stop stop-color="#FFD000"/>
<stop offset="1" stop-color="#FF6600"/>
</linearGradient>
<linearGradient id="paint1_linear_80_861" x1="30.0001" y1="0" x2="30.0001" y2="45.7143" gradientUnits="userSpaceOnUse">
<stop stop-color="#FFD000"/>
<stop offset="1" stop-color="#FF6600"/>
</linearGradient>
</defs>
</svg>
