<svg width="24" height="24" viewBox="0 0 24 24" fill="none" xmlns="http://www.w3.org/2000/svg">
<rect width="24" height="24" rx="2" fill="url(#paint0_linear_590_88)"/>
<path d="M11.4755 15.4866V9.75197L8.9028 12.2573C8.6972 12.4576 8.3598 12.4576 8.1542 12.2573C7.9486 12.0571 7.9486 11.7337 8.1542 11.5335L11.6283 8.15017C11.8339 7.94994 12.1661 7.94994 12.3717 8.15017L15.8458 11.5335C16.0514 11.7337 16.0514 12.0571 15.8458 12.2573C15.7473 12.3535 15.6136 12.4075 15.4741 12.4075C15.3347 12.4075 15.201 12.3535 15.1025 12.2573L12.5298 9.75197V15.4866C12.5298 15.769 12.2926 16 12.0026 16C11.7127 16 11.4755 15.769 11.4755 15.4866Z" fill="white"/>
<defs>
<linearGradient id="paint0_linear_590_88" x1="0" y1="0" x2="24" y2="24" gradientUnits="userSpaceOnUse">
<stop stop-color="#FFD000"/>
<stop offset="1" stop-color="#FF6600"/>
</linearGradient>
</defs>
</svg>
